<?xml version="1.0" encoding="utf-8"?>
<!-- Generator: Adobe Illustrator 23.0.3, SVG Export Plug-In . SVG Version: 6.00 Build 0)  -->
<svg version="1.1" id="Layer_1" xmlns="http://www.w3.org/2000/svg" xmlns:xlink="http://www.w3.org/1999/xlink" x="0px" y="0px"
	 viewBox="0 0 505.9 532" style="enable-background:new 0 0 505.9 532;" xml:space="preserve">
<path d="M282.3,338.3c0,0,7.3,0,12.4,0c0.7-3.3,0.9-6.8,0.4-10.4l-9.9-1.1l8.4-5.1c-1.9-5.3-5-9.7-9-12.9l-7.8,7.7v-11.8
	c-3-0.9-6.2-1.1-9.4-0.5c-1.7,0.3-3.3,0.9-4.8,1.6l2.4,12.4l-10.8-5.1c-2.2,3.2-3.8,7-4.4,11.2l8.6,5.9l-8.5,4.4c0,0.1,0,0.1,0,0.2
	c0.7,3.9,2.2,7.5,4.1,10.6l8.5-1.9l-2.7,8.5c3.4,2.8,7.3,4.6,11.5,5.1l3.3-10.6l5.6,9.6c4.6-1.6,8.4-4.8,11-9L282.3,338.3z"/>
<path d="M250.3,55.6L71.4,161.9v207.2l56.6,32.6V262.8c0-51.1,21.5-84.2,58-105.8c37.1-21.9,87.4-21.7,124.9-0.2l0,0
	c54.4,31.2,76,99.1,48.7,155.5c-1.5,3.1-3.2,6.3-5.1,9.6c-5.4,9.6-11.6,17.2-18.2,23.2c-5-3.4-6.8-8.4-6.8-8.4s-1,5.2,6.6,11.7l0,0
	c1.9,1.7,4,3.5,6.2,5.2c3.4,27.5-13.3,37.6-22.5,35.2c7.6-12.6,11.3-19.6,9.3-26.1c-3.3-1.5-7.3-3.4-11.1-5.1
	c-8.1,4-16.2,6.4-23.7,7.6c-2.6,5.9-2.9,19.6-1.2,30.7c-12.4,4.7-21.1,4.5-35-3.7c14.5-0.7,20.8-2.6,22.5-4
	c-2.5-6.3-4.6-17.7-6.8-21.9c-18.9-2.1-35.8-17.7-31.6-44.9c0-0.2,0.1-0.3,0.1-0.4c-3.3-3.4-8.5-7.5-12.3-11.3
	c-2.1,1.1-8.9,7-15.8,20.8c-3.7-16.7,0.8-25.7,13.5-36.1c8.1,5.1,16.5,8.8,22.6,9.9c5.9-5.8,14.1-8.5,22.9-10.1
	c1.8-4,1.4-14,1.8-22.7c-5.9-2.6-23.3-6.4-40.9-0.8c2.3-9.4,27-19.6,52.3-8.9c2.2,13.5,6.9,23.7,11.9,28.3c9.1-2.3,13.2-10,15-19.9
	c4.3-23.6-10-48.9-30.6-61.2c-18.3-10.8-42.5-12.4-64.4-0.3c-19.6,11.7-30.9,33.1-30.9,70.9c0,50.3-0.6,123.9-0.2,156.2l64.2,36.9
	l177.8-103.2V160.3L250.3,55.6z"/>
</svg>
